# xmcd
#
# Track frame offsets:
#	150
#	11422
#	20719
#	30815
#	43717
#	56265
#	67293
#	78938
#	87772
#	99658
#	109414
#	120556
#	130418
#	140139
#	149879
#	160700
#	171884
#	184796
#	197208
#	208999
#
# Disc length: 2945 seconds
#
# Revision: 0
# Processed by: cddbd v1.5.2PL0 Copyright (c) Steve Scherf et al.
# Submitted via: FairStars CD Ripper 1.80
#
DISCID=260b7f14
DTITLE=Lloyd Price - Singles Collection cd2
DYEAR=2015
DGENRE=Soul
TTITLE0=Lawdy Miss Clawdy
TTITLE1=Wont'cha Come Home
TTITLE2=Lady Luck
TTITLE3=Chantilly Lace
TTITLE4=Lonely Chair
TTITLE5=Say, I'm The One
TTITLE6=To Love And Be Loved
TTITLE7=Hello Little Girl
TTITLE8='Nother Fairy Tale
TTITLE9=Your Picture
TTITLE10=I Made You Cry
TTITLE11=Down By The River
TTITLE12=Chee-Koo Baby
TTITLE13=Just Call Me (And I'll Understand)
TTITLE14=Breaking My Heart (All Over Again)
TTITLE15=Question
TTITLE16=What's The Matter Now?
TTITLE17=Twistin' The Blues (Instr.)
TTITLE18=Where Were You (On Our Wedding Day)?
TTITLE19=I Cover The Waterfront
EXTD=
EXTT0=
EXTT1=
EXTT2=
EXTT3=
EXTT4=
EXTT5=
EXTT6=
EXTT7=
EXTT8=
EXTT9=
EXTT10=
EXTT11=
EXTT12=
EXTT13=
EXTT14=
EXTT15=
EXTT16=
EXTT17=
EXTT18=
EXTT19=
PLAYORDER=
